REM DIRINDEX 1\6,1\2\7,1\2\8,1\2\9,1\3\10,1\3\11,1\4\12,1\4\13,1\4\14,1\5\15,1\5\16,1\5\17
REM DIRNAME folder01,folder02,folder03,folder04,folder05,folder06,folder07,folder08,folder09,folder10,folder11,folder12,folder13,folder14,folder15,folder16,folder17
TITLE ""
FILE "3Q_t_0332-0347.mp3" MP3
  TRACK 01 AUDIO
    TITLE "10:cjc041_2270"
    INDEX 01 00:00:00
  TRACK 02 AUDIO
    TITLE "0:"
    INDEX 01 00:01:05
  TRACK 03 AUDIO
    TITLE "11:cjc041_2271"
    INDEX 01 00:01:56
  TRACK 04 AUDIO
    TITLE "0:"
    INDEX 01 00:04:68
  TRACK 05 AUDIO
    TITLE "10:cjc041_2272"
    INDEX 01 00:05:46
  TRACK 06 AUDIO
    TITLE "0:"
    INDEX 01 00:06:71
  TRACK 07 AUDIO
    TITLE "11:cjc041_2273"
    INDEX 01 00:07:49
  TRACK 08 AUDIO
    TITLE "0:"
    INDEX 01 00:10:47
  TRACK 09 AUDIO
    TITLE "10:cjc041_2274"
    INDEX 01 00:11:27
  TRACK 10 AUDIO
    TITLE "0:"
    INDEX 01 00:12:32
  TRACK 11 AUDIO
    TITLE "11:cjc041_2275"
    INDEX 01 00:13:10
  TRACK 12 AUDIO
    TITLE "0:"
    INDEX 01 00:15:44
  TRACK 13 AUDIO
    TITLE "10:cjc041_2276"
    INDEX 01 00:16:24
  TRACK 14 AUDIO
    TITLE "0:"
    INDEX 01 00:17:39
  TRACK 15 AUDIO
    TITLE "11:cjc041_2277"
    INDEX 01 00:18:19
  TRACK 16 AUDIO
    TITLE "0:"
    INDEX 01 00:19:69
  TRACK 17 AUDIO
    TITLE "10:cjc041_2278"
    INDEX 01 00:20:45
  TRACK 18 AUDIO
    TITLE "0:"
    INDEX 01 00:21:53
  TRACK 19 AUDIO
    TITLE "11:cjc041_2279"
    INDEX 01 00:22:30
  TRACK 20 AUDIO
    TITLE "0:"
    INDEX 01 00:23:71
  TRACK 21 AUDIO
    TITLE "10:cjc041_2280"
    INDEX 01 00:24:49
  TRACK 22 AUDIO
    TITLE "0:"
    INDEX 01 00:25:64
  TRACK 23 AUDIO
    TITLE "11:cjc041_2281"
    INDEX 01 00:26:42
  TRACK 24 AUDIO
    TITLE "0:"
    INDEX 01 00:28:13
  TRACK 25 AUDIO
    TITLE "10:cjc041_2282"
    INDEX 01 00:28:68
  TRACK 26 AUDIO
    TITLE "0:"
    INDEX 01 00:30:05
  TRACK 27 AUDIO
    TITLE "11:cjc041_2283"
    INDEX 01 00:30:55
  TRACK 28 AUDIO
    TITLE "0:"
    INDEX 01 00:31:71
  TRACK 29 AUDIO
    TITLE "10:cjc041_2284"
    INDEX 01 00:32:50
  TRACK 30 AUDIO
    TITLE "0:"
    INDEX 01 00:33:73
  TRACK 31 AUDIO
    TITLE "11:cjc041_2285"
    INDEX 01 00:34:49
  TRACK 32 AUDIO
    TITLE "0:"
    INDEX 01 00:37:22
  TRACK 33 AUDIO
    TITLE "10:cjc041_2286"
    INDEX 01 00:38:00
  TRACK 34 AUDIO
    TITLE "0:"
    INDEX 01 00:39:15
  TRACK 35 AUDIO
    TITLE "11:cjc041_2287"
    INDEX 01 00:39:68
  TRACK 36 AUDIO
    TITLE "0:"
    INDEX 01 00:41:71
  TRACK 37 AUDIO
    TITLE "10:cjc041_2288"
    INDEX 01 00:42:51
  TRACK 38 AUDIO
    TITLE "0:"
    INDEX 01 00:44:05
  TRACK 39 AUDIO
    TITLE "11:cjc041_2289"
    INDEX 01 00:44:58
  TRACK 40 AUDIO
    TITLE "0:"
    INDEX 01 00:46:23
  TRACK 41 AUDIO
    TITLE "10:cjc041_2290"
    INDEX 01 00:47:05
  TRACK 42 AUDIO
    TITLE "0:"
    INDEX 01 00:48:44
  TRACK 43 AUDIO
    TITLE "11:cjc041_2291"
    INDEX 01 00:49:18
  TRACK 44 AUDIO
    TITLE "0:"
    INDEX 01 00:50:64
  TRACK 45 AUDIO
    TITLE "10:cjc041_2292"
    INDEX 01 00:51:42
  TRACK 46 AUDIO
    TITLE "0:"
    INDEX 01 00:52:49
  TRACK 47 AUDIO
    TITLE "11:cjc041_2293"
    INDEX 01 00:53:23
  TRACK 48 AUDIO
    TITLE "0:"
    INDEX 01 00:57:11
  TRACK 49 AUDIO
    TITLE "10:cjc041_2294"
    INDEX 01 00:57:64
  TRACK 50 AUDIO
    TITLE "0:"
    INDEX 01 00:59:02
  TRACK 51 AUDIO
    TITLE "11:cjc041_2295"
    INDEX 01 00:59:53
  TRACK 52 AUDIO
    TITLE "0:"
    INDEX 01 01:01:25
  TRACK 53 AUDIO
    TITLE "10:cjc041_2296"
    INDEX 01 01:02:08
  TRACK 54 AUDIO
    TITLE "0:"
    INDEX 01 01:03:35
  TRACK 55 AUDIO
    TITLE "11:cjc041_2297"
    INDEX 01 01:04:13
  TRACK 56 AUDIO
    TITLE "0:"
    INDEX 01 01:05:62
  TRACK 57 AUDIO
    TITLE "10:cjc041_2298"
    INDEX 01 01:06:40
  TRACK 58 AUDIO
    TITLE "0:"
    INDEX 01 01:07:68
  TRACK 59 AUDIO
    TITLE "11:cjc041_2299"
    INDEX 01 01:08:40
  TRACK 60 AUDIO
    TITLE "0:"
    INDEX 01 01:10:14
  TRACK 61 AUDIO
    TITLE "10:cjc041_2300"
    INDEX 01 01:10:61
  TRACK 62 AUDIO
    TITLE "0:"
    INDEX 01 01:11:66
  TRACK 63 AUDIO
    TITLE "11:cjc041_2301"
    INDEX 01 01:12:50
  TRACK 64 AUDIO
    TITLE "0:"
    INDEX 01 01:13:38
